<?xml version="1.0" standalone="no"?>
<!DOCTYPE svg PUBLIC "-//W3C//DTD SVG 20010904//EN"
 "http://www.w3.org/TR/2001/REC-SVG-20010904/DTD/svg10.dtd">
<svg version="1.0" xmlns="http://www.w3.org/2000/svg"
 width="1536.000000pt" height="1024.000000pt" viewBox="0 0 1536.000000 1024.000000"
 preserveAspectRatio="xMidYMid meet">

<g transform="translate(0.000000,1024.000000) scale(0.100000,-0.100000)"
fill="#000000" stroke="none">
<path d="M7938 6723 c7 -3 16 -2 19 1 4 3 -2 6 -13 5 -11 0 -14 -3 -6 -6z"/>
<path d="M7699 6656 c-3 -3 -41 -11 -85 -17 -87 -12 -324 -88 -364 -117 -14
-10 -45 -28 -70 -41 -25 -13 -52 -29 -60 -37 -8 -7 -33 -29 -55 -49 -29 -26
-35 -35 -22 -35 14 0 9 -9 -22 -42 -21 -24 -53 -61 -70 -83 -17 -22 -45 -57
-63 -78 -18 -21 -41 -52 -50 -68 -9 -17 -24 -39 -33 -49 -9 -10 -17 -24 -19
-32 -1 -8 -13 -31 -26 -53 -44 -69 -59 -100 -60 -122 0 -25 -20 -43 -20 -19 0
9 -4 16 -9 16 -10 0 -20 -42 -47 -188 -11 -58 -20 -88 -25 -80 -6 9 -9 7 -9
-7 0 -15 -2 -17 -9 -6 -5 7 -5 28 -1 45 5 17 11 84 15 149 6 102 5 117 -9 117
-9 0 -17 -4 -17 -10 -3 -21 -5 -26 -22 -51 -10 -15 -17 -31 -16 -35 4 -15 -13
-88 -22 -100 -20 -25 -31 -289 -14 -302 6 -4 10 -11 11 -17 1 -31 19 -93 35
-119 9 -17 19 -49 20 -71 3 -45 18 -75 36 -75 7 0 13 -4 13 -10 0 -5 -4 -10
-10 -10 -15 0 -12 -39 4 -56 8 -8 13 -23 11 -34 -3 -13 0 -18 7 -14 8 5 9 1 5
-10 -4 -9 -3 -15 1 -12 5 3 23 -26 40 -64 17 -38 42 -82 54 -96 34 -40 141
-142 178 -169 17 -13 37 -30 43 -37 7 -8 32 -30 57 -49 24 -19 52 -42 62 -51
9 -9 36 -27 60 -39 24 -12 50 -27 58 -34 8 -7 40 -22 72 -32 48 -16 69 -18
139 -11 45 5 94 15 108 23 59 30 112 77 132 117 18 35 20 47 10 78 -6 19 -19
45 -29 56 -10 11 -27 32 -36 47 -10 15 -25 27 -32 27 -8 0 -14 4 -14 9 0 13
-117 51 -157 51 -19 0 -48 7 -65 16 -16 9 -27 11 -23 5 3 -6 -19 0 -50 14 -32
14 -61 22 -66 19 -5 -3 -8 0 -7 8 2 8 -9 14 -28 16 -51 5 -220 168 -186 180 7
2 12 8 12 14 0 6 -7 8 -15 4 -8 -3 -14 -2 -12 2 1 4 -9 24 -21 44 -22 35 -33
111 -18 125 3 4 6 -1 6 -10 0 -10 5 -17 11 -17 14 0 2 61 -15 75 -7 6 -11 16
-8 23 2 7 0 20 -4 30 -14 32 -12 323 3 377 19 67 144 314 157 312 6 -1 10 3 9
9 -1 5 15 23 35 40 20 16 65 56 98 89 96 94 122 115 202 162 41 24 81 51 89
59 8 8 17 14 21 15 12 1 34 6 124 28 133 31 228 36 328 16 47 -10 93 -18 102
-18 9 -1 16 -6 15 -11 -1 -5 20 -18 46 -28 27 -10 45 -14 42 -8 -3 5 -2 10 3
10 6 0 12 -7 16 -15 3 -8 14 -15 25 -15 11 0 29 -12 40 -26 12 -15 21 -21 21
-14 0 8 6 10 18 5 9 -4 22 -8 29 -8 8 0 9 -6 3 -17 -6 -12 0 -23 25 -43 43
-34 56 -35 25 -2 -13 14 -30 25 -37 25 -8 0 -12 4 -9 9 21 33 201 -126 214
-189 2 -8 10 -28 18 -44 8 -16 14 -35 14 -43 0 -7 4 -13 8 -13 4 0 9 -8 10
-17 4 -40 13 -82 32 -162 11 -46 23 -113 25 -149 3 -36 10 -69 16 -73 8 -5 8
-9 -1 -14 -6 -4 -11 -30 -10 -63 2 -58 -17 -235 -27 -262 -4 -8 -5 -18 -5 -22
1 -5 -3 -8 -9 -8 -6 0 -9 -9 -6 -19 5 -21 -7 -46 -23 -46 -5 0 -10 -3 -10 -7
0 -5 0 -13 0 -19 0 -5 5 -7 10 -4 6 3 10 1 10 -4 0 -6 -7 -11 -15 -11 -8 0
-15 -4 -15 -9 0 -5 -3 -17 -7 -27 -4 -12 -3 -15 6 -10 17 11 -59 -106 -78
-121 -23 -16 -27 -7 -8 15 19 21 22 32 8 32 -5 0 -15 -15 -22 -32 -7 -18 -21
-39 -31 -46 -10 -7 -18 -19 -18 -25 0 -7 8 -3 17 8 14 18 15 18 9 2 -3 -10 -6
-20 -6 -22 0 -1 -17 -15 -37 -31 l-38 -29 25 35 c13 18 17 30 9 25 -30 -17
-49 -39 -49 -57 0 -10 -4 -18 -10 -18 -5 0 -10 -7 -10 -17 0 -14 3 -14 22 3
22 19 23 19 8 -1 -8 -11 -16 -22 -17 -24 -1 -2 -9 1 -17 8 -11 10 -23 3 -59
-33 -25 -24 -53 -49 -63 -55 -17 -9 -17 -12 -4 -21 8 -5 11 -10 5 -10 -5 0
-17 -13 -27 -29 -9 -16 -27 -31 -40 -34 -22 -4 -22 -4 -1 -6 16 -1 21 -5 16
-17 -5 -14 -3 -15 17 -4 15 8 20 8 16 1 -10 -16 7 -14 30 4 10 8 26 15 35 15
8 0 26 11 38 24 13 14 29 22 37 19 22 -8 17 -18 -21 -36 -19 -9 -34 -22 -33
-29 2 -7 -1 -12 -7 -13 -5 0 -26 -9 -45 -20 -19 -11 -37 -20 -40 -20 -3 -1
-13 -5 -22 -9 -23 -10 -24 -38 -1 -29 12 5 15 2 10 -10 -5 -13 -3 -15 11 -8 9
5 49 21 87 35 81 30 174 85 175 104 0 6 6 12 13 12 17 0 63 50 71 78 4 11 14
26 23 33 12 11 12 6 -3 -21 -28 -51 -66 -103 -86 -118 -10 -7 -18 -20 -18 -28
0 -8 -3 -14 -7 -14 -5 0 -25 -16 -45 -35 -20 -19 -41 -35 -47 -35 -5 0 -18
-10 -28 -23 -10 -13 -34 -32 -53 -43 -19 -10 -37 -21 -40 -24 -3 -3 -24 -14
-47 -25 -45 -21 -59 -41 -20 -30 22 7 165 75 202 97 226 135 347 256 449 449
107 203 158 400 157 609 -1 138 -2 150 -25 265 -21 107 -37 162 -80 275 -57
147 -138 259 -298 416 -82 80 -108 99 -123 94 -20 -7 -73 18 -95 46 -18 21 -6
17 36 -11 20 -14 41 -22 46 -19 17 11 -56 47 -102 51 -65 5 -70 6 -65 13 8 14
-83 46 -185 66 -46 9 -343 17 -351 10z m115 -141 c-10 -8 -23 -14 -29 -14 -5
0 -1 6 9 14 11 8 24 15 30 15 5 0 1 -7 -10 -15z m621 -24 c-3 -5 5 -17 17 -25
12 -9 19 -16 14 -16 -4 0 -19 9 -32 19 -17 13 -20 21 -12 24 19 8 20 8 13 -2z
m71 -62 c19 -22 19 -22 -3 -10 -13 6 -23 16 -23 21 0 15 5 12 26 -11z m-1606
-1200 c0 -6 -4 -7 -10 -4 -5 3 -10 11 -10 16 0 6 5 7 10 4 6 -3 10 -11 10 -16z
m1375 -509 c-3 -5 -11 -10 -16 -10 -6 0 -7 5 -4 10 3 6 11 10 16 10 6 0 7 -4
4 -10z m95 -40 c-6 -11 -13 -20 -16 -20 -2 0 0 9 6 20 6 11 13 20 16 20 2 0 0
-9 -6 -20z m-110 0 c0 -5 -4 -10 -10 -10 -5 0 -10 5 -10 10 0 6 5 10 10 10 6
0 10 -4 10 -10z m99 -39 c11 -7 9 -11 -8 -20 -14 -8 -21 -8 -21 -1 0 5 6 10
13 10 8 0 7 4 -3 10 -8 5 -10 10 -5 10 6 0 16 -4 24 -9z"/>
<path d="M3641 6505 c-24 -23 -51 -57 -60 -74 -18 -35 -128 -213 -170 -276
-15 -22 -53 -83 -84 -135 -32 -52 -75 -124 -97 -159 -22 -34 -40 -66 -40 -70
0 -4 -20 -34 -45 -65 -25 -32 -45 -62 -45 -66 0 -11 -130 -204 -144 -212 -6
-4 -8 -8 -4 -8 3 0 -16 -37 -43 -82 -27 -45 -52 -93 -55 -105 -5 -20 -13 -23
-53 -24 -25 0 -55 -2 -66 -5 -11 -2 -62 -5 -113 -6 -91 -2 -123 -13 -107 -38
3 -5 0 -10 -7 -10 -8 0 -7 -5 4 -16 14 -14 41 -17 165 -16 134 0 150 -2 159
-18 13 -27 136 -184 146 -189 8 -2 89 -108 203 -260 140 -187 187 -248 198
-258 12 -9 20 -6 41 16 14 15 26 31 26 37 0 5 11 23 24 39 l25 30 16 -40 c48
-117 79 -175 88 -163 6 9 7 8 3 -5 -9 -28 68 -171 108 -202 32 -25 36 -25 63
-12 18 10 45 45 76 101 26 47 80 138 120 203 86 138 214 363 227 399 l10 26
33 -40 c17 -22 45 -56 60 -76 55 -71 61 -64 211 266 14 31 26 63 26 71 0 7 9
31 19 53 l19 39 131 0 c99 0 134 3 140 13 5 8 11 13 15 12 3 0 14 4 24 9 16
10 16 10 0 11 -10 0 -18 5 -18 11 0 6 -7 8 -16 5 -8 -3 -13 -2 -10 3 3 4 -62
14 -145 21 l-151 13 -58 121 c-32 66 -81 171 -108 231 -126 279 -175 383 -198
423 -24 40 -29 43 -58 38 -46 -9 -55 -11 -62 -19 -4 -4 -18 -7 -30 -7 -19 0
-33 21 -89 132 -37 73 -87 165 -111 205 -24 40 -44 77 -44 82 0 15 -77 91 -91
90 -8 0 -34 -20 -58 -44z m175 -255 c41 -82 82 -171 92 -197 25 -66 69 -133
88 -133 8 0 31 8 52 19 76 38 76 38 110 -31 18 -35 52 -109 76 -164 47 -106
126 -274 179 -382 17 -35 40 -70 51 -78 21 -15 20 -15 -4 -10 -83 18 -203 38
-250 43 -48 4 -65 0 -135 -31 -43 -20 -88 -36 -99 -34 -11 2 -34 23 -51 48
-48 69 -69 75 -157 46 -129 -44 -158 -56 -198 -81 -58 -36 -75 -33 -102 21
-25 51 -70 94 -96 93 -24 0 -86 -28 -165 -73 -71 -40 -135 -60 -227 -71 l-55
-6 37 33 c20 18 49 56 64 83 15 28 42 71 61 96 18 26 33 49 33 51 0 5 114 182
157 243 15 22 48 76 74 120 67 117 287 455 319 492 16 17 31 46 35 63 7 31 7
31 22 11 8 -12 48 -89 89 -171z m-421 -1030 c53 -90 98 -104 187 -59 35 17 65
35 68 38 6 8 105 44 163 59 31 9 37 8 37 -5 0 -28 43 -92 69 -102 54 -22 165
2 213 46 14 12 33 14 95 10 87 -6 262 -33 270 -41 3 -3 -1 -16 -9 -28 -8 -13
-43 -86 -78 -163 -34 -77 -65 -146 -69 -153 -6 -10 -21 4 -52 46 -65 88 -73
91 -117 44 -21 -21 -46 -56 -56 -78 -20 -40 -104 -181 -119 -199 -4 -5 -28
-44 -53 -85 -25 -41 -74 -122 -109 -179 -36 -57 -65 -107 -65 -111 0 -4 -6
-10 -14 -13 -9 -4 -25 21 -51 81 -20 47 -47 102 -59 121 -12 20 -30 52 -40 71
-38 75 -105 170 -120 170 -7 0 -34 -51 -67 -123 l-22 -49 -15 29 c-14 26 -89
129 -157 214 -16 21 -52 66 -80 101 -27 35 -52 65 -55 68 -3 3 -31 37 -62 75
-30 39 -67 82 -81 97 -33 35 -21 44 54 39 33 -1 75 4 103 13 53 18 171 77 201
100 36 28 59 20 90 -34z"/>
<path d="M6969 6443 c-13 -16 -12 -17 4 -4 9 7 17 15 17 17 0 8 -8 3 -21 -13z"/>
<path d="M11525 6395 c-27 -8 -77 -21 -111 -29 -100 -25 -164 -54 -244 -114
-68 -52 -216 -192 -265 -253 -42 -52 -107 -178 -137 -269 -31 -91 -32 -102
-32 -254 -1 -111 2 -160 10 -163 7 -2 10 -12 7 -23 -6 -23 40 -204 68 -268 30
-70 53 -112 60 -112 3 0 11 -11 17 -25 16 -35 109 -163 151 -208 46 -49 145
-127 194 -152 20 -11 37 -22 37 -26 0 -3 19 -12 43 -19 23 -7 58 -20 77 -30
40 -20 178 -59 230 -65 234 -26 485 -1 624 62 118 54 221 111 218 122 -1 7 2
10 7 6 14 -8 62 25 54 38 -4 6 0 8 10 4 11 -4 17 -1 17 8 0 8 5 15 11 15 19 0
84 62 91 87 6 21 4 22 -8 12 -8 -6 -12 -14 -9 -17 7 -7 -45 -62 -59 -62 -6 0
-5 5 2 12 27 27 9 26 -35 -2 -115 -71 -197 -106 -318 -135 -11 -3 -63 -16
-115 -29 -85 -22 -112 -24 -250 -21 -184 4 -207 7 -325 45 -49 17 -94 30 -100
30 -5 0 -36 16 -68 35 -32 19 -63 33 -68 30 -5 -4 -9 -2 -9 4 0 5 -8 12 -17
15 -10 3 -52 38 -93 76 -41 38 -78 70 -82 70 -16 0 -60 59 -95 125 -20 38 -49
89 -65 113 -16 23 -26 42 -23 42 3 0 -2 14 -10 30 -24 46 -64 265 -67 360 -4
173 82 392 194 496 34 31 150 121 210 161 49 34 155 83 191 89 18 3 41 10 52
14 24 11 160 28 195 25 52 -5 217 -37 256 -50 23 -8 62 -28 87 -44 25 -17 49
-31 54 -31 5 0 38 -26 73 -57 60 -55 160 -191 160 -218 0 -7 7 -30 17 -51 20
-48 27 -85 25 -147 0 -26 3 -45 8 -42 5 3 3 -10 -5 -30 -9 -19 -16 -47 -17
-62 -1 -16 -5 -32 -9 -38 -4 -5 -8 -14 -9 -20 -1 -5 -6 -20 -11 -33 -5 -13 -9
-27 -9 -31 0 -18 -106 -168 -148 -210 -27 -27 -78 -61 -117 -80 -59 -28 -84
-34 -160 -38 -95 -5 -184 12 -256 48 -63 32 -169 174 -169 227 0 10 -3 22 -7
25 -4 4 -5 33 -4 65 3 71 50 160 104 196 40 28 126 56 168 56 31 0 138 -53
157 -78 10 -14 12 -60 3 -99 -1 -1 -15 -18 -32 -37 -29 -33 -33 -35 -75 -29
l-44 6 0 -34 c0 -94 89 -113 201 -42 47 31 76 72 88 126 45 198 -172 372 -402
323 -38 -8 -86 -26 -106 -40 -20 -14 -42 -26 -48 -26 -21 0 -129 -127 -155
-182 -45 -95 -35 -232 24 -343 61 -114 204 -255 258 -255 12 0 30 -5 41 -10
42 -23 231 -34 304 -18 17 4 51 10 77 13 105 15 308 177 401 318 65 100 80
162 83 347 3 169 -1 198 -43 315 -29 79 -58 128 -112 187 -55 60 -211 182
-281 220 -96 52 -426 84 -535 53z"/>
<path d="M6808 6278 c-51 -60 -67 -80 -104 -138 -22 -33 18 11 89 100 76 94
80 100 74 100 -2 0 -29 -28 -59 -62z"/>
<path d="M6830 6205 c-19 -19 -29 -35 -23 -35 6 0 23 16 37 35 15 19 25 35 23
35 -1 0 -18 -16 -37 -35z"/>
<path d="M8390 6214 c0 -15 37 -61 43 -54 3 3 -6 19 -19 35 -13 17 -24 25 -24
19z"/>
<path d="M8486 6105 c9 -14 18 -25 20 -25 2 0 -2 11 -8 25 -6 14 -15 25 -20
25 -5 0 -1 -11 8 -25z"/>
<path d="M6745 6030 c-9 -16 -13 -30 -11 -30 3 0 12 14 21 30 9 17 13 30 11
30 -3 0 -12 -13 -21 -30z"/>
<path d="M6627 6021 c-3 -11 1 -22 8 -24 8 -4 10 3 7 19 -5 29 -8 30 -15 5z"/>
<path d="M6611 5913 c0 -6 -4 -20 -7 -30 -5 -14 -4 -15 5 -7 7 7 11 20 8 30
-3 11 -5 14 -6 7z"/>
<path d="M6500 5214 c0 -5 7 -19 15 -30 8 -10 15 -14 15 -8 0 5 -7 19 -15 30
-8 10 -15 14 -15 8z"/>
<path d="M6910 5150 c0 -11 4 -20 8 -20 4 0 8 9 8 20 0 11 -4 20 -8 20 -4 0
-8 -9 -8 -20z"/>
<path d="M6531 5127 c-1 -10 6 -34 15 -55 8 -20 14 -39 14 -42 -1 -2 3 -6 9
-8 16 -5 13 24 -3 41 -8 8 -19 30 -24 48 -6 19 -11 26 -11 16z"/>
<path d="M6940 5135 c0 -5 5 -17 10 -25 5 -8 10 -10 10 -5 0 6 -5 17 -10 25
-5 8 -10 11 -10 5z"/>
<path d="M6960 5079 c0 -9 11 -26 25 -39 14 -13 25 -21 25 -19 0 3 -11 20 -25
39 -14 19 -25 27 -25 19z"/>
<path d="M8506 5058 c-14 -18 -23 -34 -21 -37 6 -6 55 47 55 60 0 15 -7 10
-34 -23z"/>
<path d="M7029 4980 c13 -11 27 -20 32 -20 18 0 8 10 -23 25 l-33 16 24 -21z"/>
<path d="M12616 4713 c-6 -14 -5 -15 5 -6 7 7 10 15 7 18 -3 3 -9 -2 -12 -12z"/>
<path d="M8199 4703 c-13 -15 -12 -15 9 -4 23 12 28 21 13 21 -5 0 -15 -7 -22
-17z"/>
<path d="M8127 4614 c-15 -13 -24 -24 -20 -24 12 1 58 38 53 43 -3 3 -18 -6
-33 -19z"/>
<path d="M8065 4450 c-16 -11 -25 -20 -20 -20 6 0 24 9 40 20 17 11 26 20 20
20 -5 0 -23 -9 -40 -20z"/>
<path d="M8078 4423 c6 -2 18 -2 25 0 6 3 1 5 -13 5 -14 0 -19 -2 -12 -5z"/>
<path d="M5189 4016 c-9 -8 -342 -17 -669 -17 -1020 1 -2122 1 -2410 0 -350 0
-663 -15 -657 -33 6 -18 96 -34 277 -49 96 -8 186 -15 200 -15 172 -1 2736 2
2795 3 178 5 1063 5 1100 1 100 -11 676 -4 1035 13 150 7 645 9 1375 7 1184
-4 1237 -6 1440 -47 79 -17 550 -17 755 -1 85 6 236 17 335 22 99 6 203 13
230 15 157 11 511 16 1460 20 951 3 1330 8 1375 18 8 1 24 8 34 14 16 9 11 11
-28 11 -26 1 -50 4 -55 6 -16 10 -318 20 -541 19 -124 -1 -619 -3 -1100 -4
-584 -1 -938 -6 -1065 -15 -104 -7 -278 -15 -385 -19 -221 -7 -381 -14 -455
-20 -190 -16 -419 -5 -605 30 -150 29 -272 36 -655 42 -249 4 -490 1 -665 -6
-151 -7 -554 -14 -895 -15 -341 -1 -667 -5 -725 -9 -165 -10 -707 -13 -790 -4
-41 5 -97 13 -125 19 -46 9 -577 22 -586 14z m3871 -46 c0 -5 -2 -10 -4 -10
-3 0 -8 5 -11 10 -3 6 -1 10 4 10 6 0 11 -4 11 -10z m-4753 -6 c-3 -3 -12 -4
-19 -1 -8 3 -5 6 6 6 11 1 17 -2 13 -5z"/>
</g>
</svg>
