<?xml version="1.0" standalone="no"?>
<!DOCTYPE svg PUBLIC "-//W3C//DTD SVG 20010904//EN"
 "http://www.w3.org/TR/2001/REC-SVG-20010904/DTD/svg10.dtd">
<svg version="1.0" xmlns="http://www.w3.org/2000/svg"
 width="738.000000pt" height="135.000000pt" viewBox="0 0 738.000000 135.000000"
 preserveAspectRatio="xMidYMid meet">

<g transform="translate(0.000000,135.000000) scale(0.100000,-0.100000)"
fill="#000000" stroke="none">
<path d="M4360 1220 c-158 -19 -372 -132 -418 -221 -15 -30 -22 -58 -20 -80 4
-39 13 -25 23 36 9 56 69 109 185 167 150 73 193 81 425 82 222 1 319 -11 554
-69 187 -46 250 -71 366 -144 201 -128 259 -161 338 -193 l80 -33 -961 -5
c-721 -4 -964 -8 -973 -17 -6 -6 -9 -19 -6 -27 6 -14 153 -16 1502 -16 l1496
0 -3 28 -3 27 -165 5 -165 5 95 34 c118 43 260 113 286 142 22 25 23 26 -76
-22 -114 -55 -286 -116 -386 -135 -67 -14 -137 -18 -289 -18 -316 1 -414 31
-710 216 -166 104 -203 121 -340 156 -316 82 -600 110 -835 82z"/>
<path d="M2270 1145 c-25 -8 -87 -41 -139 -74 -104 -67 -166 -93 -286 -121
-153 -36 -290 -51 -520 -57 -334 -8 -484 12 -568 78 -42 34 -49 24 -12 -19 30
-36 77 -56 185 -78 69 -14 127 -15 363 -11 293 5 350 11 562 62 146 34 203 59
293 124 108 78 141 86 337 85 190 -1 316 -23 431 -78 81 -38 167 -115 158
-141 -7 -17 11 -21 21 -5 9 14 -29 73 -67 105 -46 39 -136 82 -235 111 -80 24
-107 27 -283 30 -151 3 -205 0 -240 -11z"/>
<path d="M3300 951 c-12 -8 -16 -45 -18 -200 l-4 -191 31 -30 30 -30 203 2
202 3 1 190 c0 201 -3 228 -32 243 -26 14 -394 25 -413 13z m200 -411 c0 -5
-9 -10 -21 -10 -11 0 -17 5 -14 10 3 6 13 10 21 10 8 0 14 -4 14 -10z"/>
<path d="M7183 834 c-23 -10 -55 -73 -48 -94 16 -50 89 -62 143 -24 31 21 28
47 -12 88 -31 34 -54 41 -83 30z"/>
<path d="M114 767 c-21 -19 -26 -29 -20 -50 9 -39 35 -59 65 -52 51 12 68 68
31 105 -26 26 -43 25 -76 -3z"/>
<path d="M1395 720 c-545 -3 -992 -7 -995 -8 -40 -18 169 -22 1340 -22 1198 0
1391 4 1330 24 -28 9 -681 11 -1675 6z"/>
<path d="M3980 579 c-69 -110 84 -381 264 -469 118 -57 272 -59 436 -4 97 33
157 68 299 174 241 179 328 227 470 255 120 25 292 16 479 -24 256 -54 433
-63 595 -30 79 16 72 31 -10 22 -102 -12 -327 -9 -423 6 -47 7 -134 24 -195
38 -216 48 -424 41 -587 -22 -91 -35 -187 -97 -353 -226 -113 -88 -191 -132
-301 -170 -289 -101 -552 14 -650 285 -28 78 -30 115 -8 157 22 43 10 48 -16
8z"/>
<path d="M3070 583 c0 -4 5 -15 10 -23 8 -13 10 -13 10 2 0 9 -4 20 -10 23 -5
3 -10 3 -10 -2z"/>
<path d="M1420 540 c-195 -39 -291 -50 -440 -51 l-125 -1 55 -15 c86 -22 264
-11 445 27 131 28 163 32 255 27 124 -5 190 -27 448 -144 197 -89 315 -136
397 -157 103 -26 284 -48 334 -41 134 20 228 108 280 263 23 67 28 109 11 82
-5 -8 -10 -23 -10 -33 0 -32 -74 -170 -110 -207 -87 -87 -218 -103 -438 -54
-146 33 -219 59 -407 146 -82 39 -188 86 -235 105 -91 36 -258 84 -294 82 -11
0 -86 -14 -166 -29z"/>
</g>
</svg>
